<?xml version="1.0" encoding="UTF-8"?>
<!-- Generator: Adobe Illustrator 18.0.0, SVG Export Plug-In . SVG Version: 6.00 Build 0)  -->
<!DOCTYPE svg PUBLIC "-//W3C//DTD SVG 1.1//EN" "http://www.w3.org/Graphics/SVG/1.1/DTD/svg11.dtd">
<svg version="1.1" id="Calque_1" xmlns="http://www.w3.org/2000/svg" xmlns:xlink="http://www.w3.org/1999/xlink" x="0px" y="0px" width="33.9px" height="22.8px" viewBox="17 11.4 33.9 22.8" enable-background="new 17 11.4 33.9 22.8" xml:space="preserve">
<g id="RTS">
	<rect x="16.9" y="11.4" fill="#AF1917" width="33.9" height="22.8"/>
	<path fill="#FFFFFF" d="M24.9,22.6l-0.1,0.7c0,0.2,0,0.3,0,0.4c0,0.1,0,0.3,0.1,0.5l2,3.6c0.1,0.3,0.3,0.4,0.7,0.4h1.9   c0.2,0,0.5-0.1,0.2-0.5l-2.5-4c0.8-0.5,1.8-1.2,1.8-2.9c0-2.1-1.1-3.2-3.8-3.2h-3.8c-0.3,0-0.4,0.1-0.4,0.5v9.8   c0,0.4,0.1,0.5,0.5,0.5H23c0.4,0,0.5-0.1,0.5-0.5v-8.3H25c1,0,1.5,0.4,1.5,1.3c0,0.9-0.4,1.1-0.8,1.3C25.2,22.1,25,21.9,24.9,22.6"/>
	<path fill="#FFFFFF" d="M33,27.7c0,0.4,0.1,0.5,0.5,0.5H35c0.3,0,0.5-0.1,0.5-0.5v-8.2h2.9c0.3,0,0.4-0.1,0.4-0.4v-1.1   c0-0.4-0.1-0.5-0.4-0.5h-8.2c-0.4,0-0.5,0.1-0.5,0.5V19c0,0.4,0.1,0.4,0.5,0.4H33V27.7z"/>
	<path fill="#FFFFFF" d="M39.7,26.4l-0.2,1.2c0,0.2,0.1,0.4,0.3,0.4c0.5,0,1.7,0.1,2.9,0.1c2.6,0,4.6-0.9,4.6-3.4   c0-1.4-0.7-2.6-2.8-3.1l-1.2-0.3c-0.9-0.2-1.2-0.5-1.2-1.1c0-0.8,0.8-1,1.6-1c1,0,2.1,0.1,2.5,0.1c0.4,0.1,0.5,0,0.6-0.4l0.2-1.2   c0-0.2-0.1-0.4-0.3-0.4c-0.5,0-1.5-0.1-2.9-0.1c-2.8,0-4.1,1.2-4.1,3.1c0,1.8,1,2.8,2.5,3.1l1.2,0.3c1,0.2,1.5,0.5,1.5,1.2   c0,0.9-0.7,1.1-2.2,1.1c-0.7,0-2-0.1-2.4-0.1C39.8,26,39.8,26,39.7,26.4"/>
</g>
</svg>