<?xml version="1.0" encoding="UTF-8" standalone="no"?>
<!-- Created with Inkscape (http://www.inkscape.org/) -->

<svg
   xmlns:dc="http://purl.org/dc/elements/1.1/"
   xmlns:cc="http://creativecommons.org/ns#"
   xmlns:rdf="http://www.w3.org/1999/02/22-rdf-syntax-ns#"
   xmlns:svg="http://www.w3.org/2000/svg"
   xmlns="http://www.w3.org/2000/svg"
   xmlns:xlink="http://www.w3.org/1999/xlink"
   xmlns:sodipodi="http://sodipodi.sourceforge.net/DTD/sodipodi-0.dtd"
   xmlns:inkscape="http://www.inkscape.org/namespaces/inkscape"
   version="1.1"
   width="151.22"
   height="40"
   id="svg2"
   inkscape:version="0.48.4 r9939"
   sodipodi:docname="rts-red.svg">
  <sodipodi:namedview
     pagecolor="#ffffff"
     bordercolor="#666666"
     borderopacity="1"
     objecttolerance="10"
     gridtolerance="10"
     guidetolerance="10"
     inkscape:pageopacity="0"
     inkscape:pageshadow="2"
     inkscape:window-width="1600"
     inkscape:window-height="876"
     id="namedview10"
     showgrid="false"
     width="744.09px"
     showguides="true"
     inkscape:guide-bbox="true"
     inkscape:zoom="3.9741935"
     inkscape:cx="63.27438"
     inkscape:cy="28.786828"
     inkscape:window-x="0"
     inkscape:window-y="24"
     inkscape:window-maximized="1"
     inkscape:current-layer="svg2">
    <sodipodi:guide
       orientation="0,1"
       position="85.93758,40.033034"
       id="guide2987" />
    <sodipodi:guide
       orientation="1,0"
       position="0,29.179634"
       id="guide2989" />
  </sodipodi:namedview>
  <metadata
     id="metadata8">
    <rdf:RDF>
      <cc:Work
         rdf:about="">
        <dc:format>image/svg+xml</dc:format>
        <dc:type
           rdf:resource="http://purl.org/dc/dcmitype/StillImage" />
        <dc:title />
      </cc:Work>
    </rdf:RDF>
  </metadata>
  <defs
     id="defs6" />
  <image
     xlink:href="file:///home/infanf/Downloads/RTS_INFO.png"
     x="0"
     y="-0.033034001"
     width="151.28152"
     height="40.016403"
     id="image10" />
  <rect
     width="151.28152"
     height="40.016403"
     x="0"
     y="-0.033034001"
     id="rect4048"
     style="fill:#b5001e;fill-opacity:1;fill-rule:nonzero;stroke:none" />
  <path
     d="m 2.2493937,2.2887989 0,35.4832941 52.9218513,0 0,-35.4832941 -52.9218513,0 z M 132.49332,4.7250121 c -11.0048,0 -13.05412,6.7743629 -13.05412,15.1891529 0,8.41479 2.04932,15.189151 13.05412,15.189151 11.0048,0 13.05413,-6.774361 13.05413,-15.189151 0,-8.41479 -2.04933,-15.1891529 -13.05413,-15.1891529 z m -71.248709,0.4880051 0,29.2802938 6.710071,0 0,-29.2802938 -6.710071,0 z m 10.858106,0 0,29.2802938 5.978068,0 0,-18.422185 11.102112,18.422185 5.978054,0 0,-29.2802938 -5.978054,0 0,18.4221858 -11.102112,-18.4221858 -5.978068,0 z m 27.206283,0 0,29.2802938 6.71006,0 0,-11.834119 10.98011,0 0,-5.734057 -10.98011,0 0,-5.856059 12.20013,0 0,-5.8560588 -18.91019,0 z m 33.18432,5.0020498 c 5.75855,0 5.97805,4.325798 5.97805,9.699098 0,5.3733 -0.2195,9.699096 -5.97805,9.699096 -5.75855,0 -5.97805,-4.325796 -5.97805,-9.699096 0,-5.3733 0.2195,-9.699098 5.97805,-9.699098 z m -88.580502,1.246698 c 2.10856,0 3.774992,0.132046 4.529294,0.236379 0.339101,0.05217 0.521103,0.204562 0.468935,0.594756 l -0.312632,1.952019 c -0.104283,0.573874 -0.284707,0.657275 -0.96075,0.606195 -0.651045,-0.05326 -2.290009,-0.186818 -3.904044,-0.186818 -1.197753,0 -2.447647,0.262254 -2.447647,1.616516 0,0.962985 0.597635,1.377623 1.898646,1.715644 l 1.92533,0.495628 c 3.435649,0.884728 4.430166,2.576852 4.430166,4.841926 0,3.853013 -3.024886,5.207926 -7.163761,5.207926 -1.848798,0 -3.747215,-0.132033 -4.50261,-0.236375 -0.338022,-0.05217 -0.520024,-0.207291 -0.468935,-0.598568 l 0.312632,-2.001587 c 0.103204,-0.573874 0.288525,-0.654551 0.964568,-0.602378 0.651045,0.05217 2.550284,0.20969 3.64478,0.20969 2.394414,0 3.381727,-0.261941 3.381727,-1.719455 0,-0.989069 -0.676704,-1.45568 -2.264648,-1.871958 l -1.92533,-0.499444 c -2.525934,-0.649959 -3.980293,-2.235735 -3.980293,-4.918171 0,-2.967206 2.080271,-4.841925 6.374572,-4.841925 z m -34.6216719,0.183002 5.8065079,0 c 4.009527,0 5.833179,1.821433 5.833179,5.074488 0,2.52484 -1.430899,3.673262 -2.706898,4.479734 l 3.801097,6.298314 c 0.41628,0.652129 -0.02752,0.888319 -0.392699,0.888319 l -2.83653,0 c -0.623861,0 -0.830618,-0.181806 -1.090381,-0.625256 l -3.103401,-5.573929 c -0.182596,-0.313025 -0.255445,-0.517992 -0.255445,-0.777757 0,-0.103258 0.02091,-0.259946 0.09916,-0.571883 L 14.7088,19.742596 c 0.233671,-0.990151 0.493487,-0.651544 1.246697,-0.96457 0.599956,-0.259765 1.20095,-0.675579 1.20095,-2.001581 0,-1.458603 -0.756164,-2.032082 -2.318029,-2.032082 l -2.474333,0 0,12.935941 c 0,0.522794 -0.153119,0.705318 -0.674815,0.705318 l -2.3980969,0 c -0.5195247,0 -0.6709976,-0.182524 -0.6709976,-0.705318 l 0,-15.330214 c 0,-0.520619 0.1514729,-0.705323 0.6709976,-0.705323 z m 13.6527059,0 12.596632,0 c 0.521697,0 0.67862,0.184704 0.67862,0.705323 l 0,1.7652 c 0,0.520623 -0.156923,0.709134 -0.67862,0.709134 l -4.422556,0 0,12.85588 c 0,0.521707 -0.156924,0.705318 -0.67862,0.705318 l -2.394279,0 c -0.520618,0 -0.674816,-0.183611 -0.674816,-0.705318 l 0,-12.85588 -4.426361,0 c -0.52171,0 -0.678633,-0.188511 -0.678633,-0.709134 l 0,-1.7652 c 0,-0.520619 0.156923,-0.705323 0.678633,-0.705323 z"
     id="path4065"
     style="fill:#ffffff;fill-opacity:1;fill-rule:nonzero;stroke:none"
     inkscape:connector-curvature="0" />
  <text
     x="61.235027"
     y="19.514347"
     id="text4050"
     xml:space="preserve"
     style="font-size:1.70801711px;font-style:normal;font-variant:normal;font-weight:normal;font-stretch:normal;text-align:start;line-height:125%;letter-spacing:0px;word-spacing:0px;writing-mode:lr-tb;text-anchor:start;fill:#000000;fill-opacity:1;stroke:none;font-family:LMRoman12;-inkscape-font-specification:LMRoman12"
     sodipodi:linespacing="125%"><tspan
       x="61.235027"
       y="19.514347"
       id="tspan4052" /></text>
</svg>
