<?xml version="1.0" encoding="UTF-8" standalone="no"?>
<!-- Generator: Adobe Illustrator 18.0.0, SVG Export Plug-In . SVG Version: 6.00 Build 0)  -->

<svg
   xmlns:dc="http://purl.org/dc/elements/1.1/"
   xmlns:cc="http://creativecommons.org/ns#"
   xmlns:rdf="http://www.w3.org/1999/02/22-rdf-syntax-ns#"
   xmlns:svg="http://www.w3.org/2000/svg"
   xmlns="http://www.w3.org/2000/svg"
   xmlns:sodipodi="http://sodipodi.sourceforge.net/DTD/sodipodi-0.dtd"
   xmlns:inkscape="http://www.inkscape.org/namespaces/inkscape"
   version="1.1"
   id="Calque_1"
   x="0px"
   y="0px"
   width="33.9px"
   height="22.8px"
   viewBox="17 11.4 33.9 22.8"
   enable-background="new 17 11.4 33.9 22.8"
   xml:space="preserve"
   inkscape:version="0.48.4 r9939"
   sodipodi:docname="rts-white.svg"><metadata
     id="metadata16"><rdf:RDF><cc:Work
         rdf:about=""><dc:format>image/svg+xml</dc:format><dc:type
           rdf:resource="http://purl.org/dc/dcmitype/StillImage" /></cc:Work></rdf:RDF></metadata><defs
     id="defs14" /><sodipodi:namedview
     pagecolor="#ffffff"
     bordercolor="#666666"
     borderopacity="1"
     objecttolerance="10"
     gridtolerance="10"
     guidetolerance="10"
     inkscape:pageopacity="0"
     inkscape:pageshadow="2"
     inkscape:window-width="1600"
     inkscape:window-height="876"
     id="namedview12"
     showgrid="false"
     inkscape:zoom="12.848901"
     inkscape:cx="20.0253"
     inkscape:cy="11.621515"
     inkscape:window-x="1366"
     inkscape:window-y="24"
     inkscape:window-maximized="1"
     inkscape:current-layer="RTS" /><g
     id="RTS"><path
       style="fill:#ffffff;fill-opacity:1;stroke:#ffffff;stroke-width:0;stroke-miterlimit:4;stroke-opacity:1;stroke-dasharray:none"
       d="m -0.03867261,11.396402 0,-11.36283916 16.88860361,0 16.888603,0 0,11.36283916 0,11.362839 -16.888603,0 -16.88860361,0 0,-11.362839 z m 6.44413071,5.510199 c 0.070393,-0.07039 0.093393,-1.156032 0.093393,-4.4083 l 0,-4.3149075 1.045737,0.039904 C 8.678323,8.2665585 8.9351691,8.3482194 9.245008,8.7639211 9.4370751,9.0216108 9.5052824,9.6501875 9.3817824,10.024395 9.3308634,10.178682 9.167638,10.40512 9.0190595,10.527591 8.7829086,10.722246 8.7010829,10.745669 8.3687697,10.713738 l -0.3801469,-0.03653 -0.094332,0.340138 c -0.051883,0.187077 -0.098146,0.638139 -0.102808,1.002362 l -0.00848,0.662222 1.0991648,1.983918 c 0.731401,1.320131 1.1610594,2.016085 1.2841564,2.080056 0.122785,0.06381 0.583178,0.09652 1.369126,0.09728 1.119082,0.0011 1.188877,-0.0077 1.2705,-0.16023 0.07539,-0.140872 -0.07754,-0.423605 -1.203591,-2.225181 -0.709476,-1.135092 -1.289957,-2.092778 -1.289957,-2.128192 0,-0.03541 0.117552,-0.137038 0.261227,-0.225834 0.416108,-0.257168 0.977445,-0.907887 1.199789,-1.390829 0.39295,-0.8534918 0.30847,-2.3369828 -0.181099,-3.1802396 C 11.246512,6.9370464 10.526106,6.4923577 9.5766778,6.2884746 9.0113221,6.1670682 4.2717137,6.1408617 4.0861937,6.2581162 3.9843253,6.3225003 3.9694522,6.9941174 3.9694522,11.529749 c 0,2.858816 0.025168,5.259137 0.055928,5.334046 0.049595,0.120776 0.1822325,0.136199 1.1713064,0.136199 0.7637461,0 1.1448212,-0.02944 1.2087714,-0.09339 z m 11.9666939,-0.17269 c 0.145873,-0.106626 0.151832,-0.25666 0.173087,-4.358349 l 0.02201,-4.247922 1.544467,0 c 1.225991,0 1.56304,-0.02238 1.634541,-0.1085322 0.05928,-0.071426 0.08249,-0.3966505 0.0679,-0.9512627 -0.02132,-0.8103191 -0.02966,-0.8465636 -0.216743,-0.9423826 -0.152566,-0.078139 -1.115795,-0.095399 -4.461947,-0.079954 -4.122373,0.019029 -4.27113,0.024831 -4.377806,0.1707716 -0.163223,0.2233005 -0.154051,1.545308 0.01187,1.7112312 0.102999,0.1030002 0.36707,0.1223007 1.673294,0.1223007 l 1.550994,0 0,4.315569 c 0,4.027959 0.0091,4.320855 0.136199,4.394896 0.219289,0.127724 2.060948,0.106067 2.242127,-0.02637 l 0,0 z m 8.089495,-0.04515 c 2.120847,-0.189321 3.225654,-0.863832 3.698075,-2.257764 0.144614,-0.4267 0.165831,-0.626118 0.136559,-1.283471 -0.04343,-0.975216 -0.261363,-1.489108 -0.861623,-2.031689 -0.53618,-0.484659 -1.114347,-0.743415 -2.428217,-1.086741 -1.618816,-0.4230116 -1.82895,-0.5609985 -1.82895,-1.201005 0,-0.4297457 0.09835,-0.5894029 0.489025,-0.7938422 0.311653,-0.1630886 0.404529,-0.1704013 1.845805,-0.1453392 0.834702,0.014514 1.656861,0.030389 1.827022,0.035276 0.257588,0.0074 0.32515,-0.023704 0.403569,-0.1857906 C 29.897554,7.4187538 30.048854,6.1946456 29.952674,6.0412778 29.843435,5.8670865 29.266639,5.8133941 27.381211,5.8019069 25.248873,5.7889154 24.3759,6.0032812 23.582352,6.7347495 c -0.697297,0.6427459 -0.937367,1.3063197 -0.87866,2.4286927 0.04778,0.9134308 0.301491,1.5276918 0.838444,2.0299488 0.524738,0.49083 0.857697,0.63598 2.346828,1.023067 1.692346,0.439912 1.934668,0.602461 1.934668,1.297771 0,0.889275 -0.731489,1.110429 -3.307676,1.000022 -1.52509,-0.06536 -1.719952,-0.02597 -1.820413,0.367996 -0.179328,0.703249 -0.254286,1.404612 -0.167457,1.566853 0.102369,0.191278 -0.03486,0.1705 1.559818,0.236176 0.706286,0.02909 1.33669,0.05897 1.400898,0.0664 0.06421,0.0074 0.501988,-0.02088 0.972845,-0.06291 l 0,0 z"
       id="path2993"
       inkscape:connector-curvature="0"
       transform="translate(16.999999,11.4)" />
        </g></svg>
