<?xml version="1.0" encoding="UTF-8" standalone="no"?>
<!-- Created with Inkscape (http://www.inkscape.org/) -->
<svg xmlns:dc="http://purl.org/dc/elements/1.1/" xmlns:cc="http://creativecommons.org/ns#" xmlns:rdf="http://www.w3.org/1999/02/22-rdf-syntax-ns#" xmlns:svg="http://www.w3.org/2000/svg" xmlns="http://www.w3.org/2000/svg" xmlns:xlink="http://www.w3.org/1999/xlink" version="1.1" width="1240" height="328" id="svg2">
  <metadata id="metadata8">
    <rdf:RDF>
      <cc:Work rdf:about="">
        <dc:format>image/svg+xml</dc:format>
        <dc:type rdf:resource="http://purl.org/dc/dcmitype/StillImage"/>
        <dc:title/>
      </cc:Work>
    </rdf:RDF>
  </metadata>
  <defs id="defs6"/>
  <image xlink:href="file:///home/infanf/Downloads/RTS_INFO.png" x="0" y="0" width="1240" height="328" id="image10"/>
  <rect width="1240" height="328" x="0" y="-1.2490009e-15" id="rect4048" style="fill:#b5001e;fill-opacity:1;fill-rule:nonzero;stroke:none"/>
  <path d="m 18.4375,19.03125 0,290.84375 433.78125,0 0,-290.84375 -433.78125,0 z M 1086,39 c -90.2024,0 -107,55.527 -107,124.5 0,68.973 16.7976,124.5 107,124.5 90.2024,0 107,-55.527 107,-124.5 C 1193,94.527 1176.2024,39 1086,39 z m -584,4 0,240 55,0 0,-240 -55,0 z m 89,0 0,240 49,0 0,-151 91,151 49,0 0,-240 -49,0 0,151 -91,-151 -49,0 z m 223,0 0,240 55,0 0,-97 90,0 0,-47 -90,0 0,-48 100,0 0,-48 -155,0 z m 272,41 c 47.2007,0 49,35.457 49,79.5 0,44.043 -1.7993,79.5 -49,79.5 -47.2007,0 -49,-35.457 -49,-79.5 0,-44.043 1.7993,-79.5 49,-79.5 z M 359.9375,94.21875 c 17.28312,0 30.94228,1.082253 37.125,1.9375 2.77956,0.427628 4.27137,1.676739 3.84375,4.875 l -2.5625,16 c -0.85524,4.70386 -2.33371,5.38746 -7.875,4.96875 -5.33639,-0.43653 -18.7704,-1.53125 -32,-1.53125 -9.81753,0 -20.0625,2.1496 -20.0625,13.25 0,7.89322 4.89864,11.29186 15.5625,14.0625 l 15.78125,4.0625 c 28.16081,7.25179 36.3125,21.1215 36.3125,39.6875 0,31.58178 -24.79394,42.6875 -58.71875,42.6875 -15.15391,0 -30.71461,-1.08225 -36.90625,-1.9375 -2.77064,-0.42762 -4.26247,-1.69908 -3.84375,-4.90625 l 2.5625,-16.40625 c 0.84634,-4.70386 2.36496,-5.36512 7.90625,-4.9375 5.3364,0.42763 20.90382,1.71875 29.875,1.71875 19.62615,0 27.71875,-2.14702 27.71875,-14.09375 0,-8.10703 -5.54671,-11.93167 -18.5625,-15.34375 l -15.78125,-4.09375 c -20.70412,-5.32748 -32.625,-18.32552 -32.625,-40.3125 0,-24.3211 17.05122,-39.6875 52.25,-39.6875 z m -283.78125,1.5 47.59375,0 c 32.86466,0 47.8125,14.92963 47.8125,41.59375 0,20.6952 -11.72853,30.1084 -22.1875,36.71875 l 31.15625,51.625 c 3.41207,5.3453 -0.22539,7.28125 -3.21875,7.28125 l -23.25,0 c -5.11366,0 -6.80829,-1.4902 -8.9375,-5.125 L 119.6875,182.125 c -1.49668,-2.56575 -2.09375,-4.24578 -2.09375,-6.375 0,-0.84633 0.17106,-2.13067 0.8125,-4.6875 l 2.15625,-8.96875 c 1.91539,-8.11593 4.04493,-5.3405 10.21875,-7.90625 4.91768,-2.1292 9.84375,-5.53748 9.84375,-16.40625 0,-11.95565 -6.19801,-16.65625 -19,-16.65625 l -20.28125,0 0,106.03125 c 0,4.28515 -1.25501,5.78125 -5.53125,5.78125 l -19.65625,0 c -4.25842,0 -5.5,-1.4961 -5.5,-5.78125 l 0,-125.65625 c 0,-4.267321 1.24158,-5.78125 5.5,-5.78125 z m 111.90625,0 103.25,0 c 4.27624,0 5.5625,1.513929 5.5625,5.78125 l 0,14.46875 c 0,4.26733 -1.28626,5.8125 -5.5625,5.8125 l -36.25,0 0,105.375 c 0,4.27624 -1.28627,5.78125 -5.5625,5.78125 l -19.625,0 c -4.26734,0 -5.53125,-1.50501 -5.53125,-5.78125 l 0,-105.375 -36.28125,0 c -4.27623,0 -5.5625,-1.54517 -5.5625,-5.8125 l 0,-14.46875 c 0,-4.267321 1.28627,-5.78125 5.5625,-5.78125 z" id="path4065" style="fill:#ffffff;fill-opacity:1;fill-rule:nonzero;stroke:none"/>
  <text x="501.92154" y="160.22285" id="text4050" xml:space="preserve" style="font-size:14px;font-style:normal;font-variant:normal;font-weight:normal;font-stretch:normal;text-align:start;line-height:125%;letter-spacing:0px;word-spacing:0px;writing-mode:lr-tb;text-anchor:start;fill:#000000;fill-opacity:1;stroke:none;font-family:LMRoman12;-inkscape-font-specification:LMRoman12"><tspan x="501.92154" y="160.22285" id="tspan4052"/></text>
</svg>